<?xml version="1.0" standalone="no"?><!DOCTYPE svg PUBLIC "-//W3C//DTD SVG 1.1//EN" "http://www.w3.org/Graphics/SVG/1.1/DTD/svg11.dtd"><svg t="1604710826001" class="icon" viewBox="0 0 1024 1024" version="1.1" xmlns="http://www.w3.org/2000/svg" p-id="27119" width="32" height="32" xmlns:xlink="http://www.w3.org/1999/xlink"><defs><style type="text/css"></style></defs><path d="M758.1 631.4h-0.3C332.9 622.5 77 264.8 66.3 249.6c-4-5.7-2.7-13.7 3.1-17.7 5.7-4 13.6-2.7 17.6 3l0.1 0.1c10.4 14.8 259.1 362.4 671.3 371 7 0.1 12.6 5.9 12.4 12.9-0.2 7-5.8 12.5-12.7 12.5z" p-id="27120"></path><path d="M582 791.7c-11.7 0-19.1-0.3-20.8-0.4C142.8 762.8 138 466.5 138 463.5c0-7 5.7-12.7 12.7-12.7 7 0 12.7 5.7 12.7 12.6 0 3.6 8 275.8 399.3 302.5 11.1 0.6 276.5 12.5 374.1-143.6 3.7-5.9 11.5-7.7 17.5-4 5.9 3.7 7.7 11.5 4 17.5C868.2 779.9 650.7 791.7 582 791.7zM163.3 463.5h0.3-0.3zM884.9 571.8c-3 0-6-1.1-8.4-3.2-7.5-6.7-181.3-160.6-330.4-71.1-6 3.6-13.8 1.7-17.4-4.4-3.6-6-1.6-13.8 4.4-17.4 165-99 352.4 66.8 360.3 73.9 5.2 4.7 5.7 12.7 1 17.9-2.6 2.9-6 4.3-9.5 4.3zM292 337.6c-13.1 0-21.1-0.4-21.5-0.4-7-0.5-12.2-6.6-11.7-13.6s6.7-12.4 13.6-11.7c40.7 2.2 167.7-1.3 213.1-46.7 5-5 13-5 17.9 0 5 5 5 13 0 17.9-49 49.1-163.7 54.5-211.4 54.5zM340.2 408.1c-7 0-12.7-5.7-12.7-12.7 0-7 5.7-12.7 12.7-12.7 51.2-0.1 194.1-13 239.3-71.1 4.3-5.5 12.2-6.6 17.8-2.2 5.5 4.3 6.5 12.3 2.2 17.8-62.1 80-251.2 80.9-259.3 80.9z" p-id="27121"></path><path d="M414.1 670.4c-0.6 0-1.2 0-1.7-0.1-6.9-0.9-11.8-7.3-10.8-14.3 0.1-7.2-15-43.1-39.8-84.5-3.6-6-1.7-13.8 4.4-17.4 6-3.6 13.8-1.6 17.4 4.4 4.7 7.9 46.3 78 43.2 100.9-1 6.4-6.5 11-12.7 11z" p-id="27122"></path></svg>