<?xml version="1.0" standalone="no"?><!DOCTYPE svg PUBLIC "-//W3C//DTD SVG 1.1//EN" "http://www.w3.org/Graphics/SVG/1.1/DTD/svg11.dtd"><svg t="1604656577406" class="icon" viewBox="0 0 1084 1024" version="1.1" xmlns="http://www.w3.org/2000/svg" p-id="20017" width="38.109375" height="36" xmlns:xlink="http://www.w3.org/1999/xlink"><defs><style type="text/css"></style></defs><path d="M395.133 801.365q25.542 15.96 9.582 41.5l-95.76 153.248q-15.96 25.541-41.5 9.581-25.542-15.96-9.582-41.5l95.76-153.248q15.96-25.541 41.5-9.581zM749.334 801.366q-25.541 15.96-9.582 41.5l95.76 153.248q15.96 25.541 41.501 9.581 25.541-15.96 9.581-41.501l-95.76-153.247q-15.959-25.541-41.5-9.582z" p-id="20018" fill="#dbdbdb"></path><path d="M60.235 0H1024a60.235 60.235 0 0 1 60.235 60.235V783.06A60.235 60.235 0 0 1 1024 843.294H60.235A60.235 60.235 0 0 1 0 783.06V60.235A60.235 60.235 0 0 1 60.235 0z m0 60.235V783.06H1024V60.235H60.235z" p-id="20019" fill="#dbdbdb"></path><path d="M301.176 331.294v240.941q0 30.118-30.117 30.118-30.118 0-30.118-30.118v-240.94q0-30.119 30.118-30.119 30.117 0 30.117 30.118zM512 301.176v301.177q0 30.118-30.118 30.118-30.117 0-30.117-30.118V301.176q0-30.117 30.117-30.117 30.118 0 30.118 30.117zM692.706 421.647v180.706q0 30.118-30.118 30.118-30.117 0-30.117-30.118V421.647q0-30.118 30.117-30.118 30.118 0 30.118 30.118zM843.294 331.294v240.941q0 30.118-30.118 30.118-30.117 0-30.117-30.118v-240.94q0-30.119 30.117-30.119 30.118 0 30.118 30.118z" p-id="20020" fill="#dbdbdb"></path></svg>