<?xml version="1.0" standalone="no"?><!DOCTYPE svg PUBLIC "-//W3C//DTD SVG 1.1//EN" "http://www.w3.org/Graphics/SVG/1.1/DTD/svg11.dtd"><svg t="1604712248914" class="icon" viewBox="0 0 1024 1024" version="1.1" xmlns="http://www.w3.org/2000/svg" p-id="50388" xmlns:xlink="http://www.w3.org/1999/xlink" width="32" height="32"><defs><style type="text/css"></style></defs><path d="M914.1 403.7c-1.5-0.7-2.2-1.5-3.7-2.2l-79.5-59.6V147.5c0-24.3-19.9-44.2-44.1-44.2H246.3c-24.3 0-44.2 19.9-44.2 44.2v187L113 400.8c-2.2 0.7-4.4 2.2-5.9 3.7-4.4 2.9-6.6 7.4-6.6 12.5v463.1c0 24.3 19.9 44.2 44.2 44.2h732.5c24.3 0 44.2-19.9 44.2-44.2V417c0.1-5.9-2.9-10.3-7.3-13.3zM878 414l-47.9 30.9v-67L878 414zM231.6 147.5c0-8.1 6.6-14.7 14.7-14.7H786c8.1 0 14.7 6.6 14.7 14.7v317.3l-290.1 190-279-182.6V147.5zM202.2 453L144 414.7l58.1-43.4V453z m675.1 441.8H144.7c-8.1 0-14.7-6.6-14.7-14.7V440.5l78.8 51.6L502.5 685c2.2 1.5 5.2 2.2 8.1 2.2 2.9 0 5.9-0.7 8.1-2.2l304.8-199.5 68.5-44.9v439.6c0 8-6.6 14.6-14.7 14.6z m0 0" p-id="50389"></path><path d="M295.7 233.6h189.2c8.1 0 14.7-6.6 14.7-14.7s-6.6-14.7-14.7-14.7H295.7c-8.1 0-14.7 6.6-14.7 14.7-0.1 8.1 6.6 14.7 14.7 14.7z m0 106.8h441.7c8.1 0 14.7-6.6 14.7-14.7s-6.6-14.7-14.7-14.7H295.7c-8.1 0-14.7 6.6-14.7 14.7-0.1 8.1 6.6 14.7 14.7 14.7z m0 106.7h441.7c8.1 0 14.7-6.6 14.7-14.7s-6.6-14.7-14.7-14.7H295.7c-8.1 0-14.7 6.6-14.7 14.7-0.1 8.1 6.6 14.7 14.7 14.7z m0 0" p-id="50390"></path></svg>