<?xml version="1.0" standalone="no"?><!DOCTYPE svg PUBLIC "-//W3C//DTD SVG 1.1//EN" "http://www.w3.org/Graphics/SVG/1.1/DTD/svg11.dtd"><svg t="1604711602355" class="icon" viewBox="0 0 1024 1024" version="1.1" xmlns="http://www.w3.org/2000/svg" p-id="38038" xmlns:xlink="http://www.w3.org/1999/xlink" width="32" height="32"><defs><style type="text/css"></style></defs><path d="M864.130408 73.465199 154.972049 73.465199c-52.147684 0-94.554516 42.405809-94.554516 94.554516l0 472.782813c0 52.124148 42.406832 94.553493 94.554516 94.553493l391.999952 0 205.892277 205.821669c4.617158 4.617158 10.663874 6.925736 16.712637 6.925736s12.095479-2.308579 16.712637-6.925736c9.234315-9.232269 9.234315-24.194028 0-33.426297L573.473585 695.005011c-4.432962-4.431939-10.434653-6.925736-16.714683-6.925736L154.972049 688.079274c-26.062586 0-47.27777-21.237697-47.27777-47.276746L107.694279 168.020738c0-26.062586 21.215184-47.278793 47.27777-47.278793l709.158359 0c26.062586 0 47.278793 21.216207 47.278793 47.278793l0 472.782813c0 26.03905-21.216207 47.276746-47.278793 47.276746L769.806135 688.080298c-13.065574 0-23.63735 10.571776-23.63735 23.639396 0 13.066597 10.571776 23.638373 23.63735 23.638373l94.324272 0c52.148707 0 94.555539-42.430368 94.555539-94.553493L958.685947 168.020738C958.68697 115.871007 916.279115 73.465199 864.130408 73.465199zM249.526565 404.40447c0 26.109658 21.167089 47.276746 47.276746 47.276746 26.107611 0 47.276746-21.167089 47.276746-47.276746 0-26.107611-21.169135-47.276746-47.276746-47.276746C270.693654 357.127723 249.526565 378.296859 249.526565 404.40447zM462.27397 404.40447c0 26.109658 21.167089 47.276746 47.27777 47.276746 26.108634 0 47.278793-21.167089 47.278793-47.276746 0-26.107611-21.170159-47.276746-47.278793-47.276746C483.441059 357.127723 462.27397 378.296859 462.27397 404.40447zM769.576915 404.40447c0-26.107611-21.170159-47.276746-47.276746-47.276746-26.109658 0-47.276746 21.169135-47.276746 47.276746 0 26.109658 21.168112 47.276746 47.276746 47.276746C748.406756 451.681216 769.576915 430.514127 769.576915 404.40447z" p-id="38039"></path></svg>