<?xml version="1.0" standalone="no"?><!DOCTYPE svg PUBLIC "-//W3C//DTD SVG 1.1//EN" "http://www.w3.org/Graphics/SVG/1.1/DTD/svg11.dtd"><svg t="1604813492121" class="icon" viewBox="0 0 1024 1024" version="1.1" xmlns="http://www.w3.org/2000/svg" p-id="59459" width="32" height="32" xmlns:xlink="http://www.w3.org/1999/xlink"><defs><style type="text/css"></style></defs><path d="M736.48 656.896c-52.128 0-94.496 42.4-94.496 94.496s42.368 94.496 94.496 94.496c52.096 0 94.496-42.4 94.496-94.496s-42.4-94.496-94.496-94.496z m0 140.32c-25.28 0-45.824-20.576-45.824-45.824s20.544-45.824 45.824-45.824c25.248 0 45.824 20.576 45.824 45.824s-20.576 45.824-45.824 45.824z m249.824-95.2c-3.52-18.72-15.552-30.816-30.976-30.816h-2.112c-29.504 0-53.536-24-53.536-53.504 0-7.744 3.392-17.248 4.672-20.224 7.328-16.48 1.696-36.672-14.56-47.872l-62.56-34.656a39.36 39.36 0 0 0-15.744-3.2c-11.328 0-22.496 4.64-29.952 12.32-7.776 8.032-28.512 24.608-42.752 24.608-14.368 0-35.232-16.896-43.04-25.056a42.112 42.112 0 0 0-30.208-12.576c-5.472 0-10.688 1.024-15.36 3.072l-1.184 0.48-63.648 34.976-1.536 0.992a38.72 38.72 0 0 0-13.184 46.784c0.512 1.152 4.736 11.488 4.736 20.384 0 29.504-24 53.504-53.504 53.504h-2.496c-15.04 0-27.072 12.096-30.624 30.816-0.544 2.912-5.28 28.768-5.28 49.696 0 20.928 4.736 46.784 5.28 49.696 3.552 18.72 15.552 30.816 30.976 30.816h2.112c29.504 0 53.536 24 53.536 53.504 0 7.744-3.392 17.248-4.672 20.256-7.296 16.416-1.696 36.608 14.496 47.872l61.376 34.176a41.536 41.536 0 0 0 45.984-9.632c7.552-8.224 29.024-26.176 43.68-26.176 14.816 0 36.064 18.016 43.968 26.72 7.488 8.128 18.88 13.024 30.496 13.024 5.504 0 10.688-1.056 17.024-3.84l62.048-34.304 1.472-0.96a38.72 38.72 0 0 0 13.184-46.752c-0.48-1.184-4.736-11.52-4.736-20.416 0-29.504 24.032-53.504 53.536-53.504h2.432c15.104 0 27.136-12.096 30.656-30.752 0.032-0.256 5.28-27.744 5.28-49.76 0-20.896-4.736-46.784-5.28-49.696z m-46.496 82.4a102.112 102.112 0 0 0-88.768 101.312c0 11.936 2.88 23.264 5.408 30.944l-44.768 24.736a179.712 179.712 0 0 0-18.432-15.744c-19.776-14.688-38.976-22.144-56.96-22.144-17.856 0-36.864 7.328-56.544 21.728a184.416 184.416 0 0 0-18.304 15.456l-42.816-23.936c2.56-7.68 5.44-19.104 5.44-31.04a102.112 102.112 0 0 0-88.768-101.312 234.336 234.336 0 0 1-3.104-32.672c0-10.816 1.792-24.352 3.104-32.672a102.112 102.112 0 0 0 88.768-101.312c0-11.904-2.88-23.232-5.408-30.912l46.24-25.344c4 3.744 10.432 9.44 18.336 15.072 19.392 13.856 38.112 20.864 55.584 20.864 17.312 0 35.872-6.912 55.136-20.48 7.84-5.504 14.208-11.04 18.24-14.784l44.256 24.608a102.08 102.08 0 0 0-5.408 30.976 102.112 102.112 0 0 0 88.768 101.312c1.312 8.512 3.104 22.016 3.104 32.672 0 10.72-1.792 24.192-3.104 32.672zM95.584 922.784v-53.536c0-181.984 140.32-331.904 319.104-348.8l-0.064-0.032h0.48c10.976-1.024 22.048-1.6 33.28-1.6 1.696 0 3.36 0.064 5.056 0.096 39.52-3.072 99.36-12.352 130.624-40.256l15.328-11.936c59.776-46.656 94.048-116.416 94.048-191.328C693.376 141.184 583.424 32 448.288 32 313.152 32 203.2 141.184 203.2 275.392c0 74.88 34.304 144.64 94.08 191.328l15.296 11.936-18.016 7.168C135.328 549.056 32.416 699.552 32.416 869.28v84.832c0 17.248 14.144 31.328 31.584 31.328h461.44a321.568 321.568 0 0 1-38.176-62.624H95.584z m170.784-647.392c0-99.68 81.6-180.768 181.92-180.768S630.24 175.712 630.24 275.392 548.608 456.16 448.288 456.16c-100.288 0-181.92-81.056-181.92-180.768z m0 0" p-id="59460"></path></svg>