<?xml version="1.0" standalone="no"?><!DOCTYPE svg PUBLIC "-//W3C//DTD SVG 1.1//EN" "http://www.w3.org/Graphics/SVG/1.1/DTD/svg11.dtd"><svg t="1604711176036" class="icon" viewBox="0 0 1024 1024" version="1.1" xmlns="http://www.w3.org/2000/svg" p-id="34149" xmlns:xlink="http://www.w3.org/1999/xlink" width="32" height="32"><defs><style type="text/css"></style></defs><path d="M490.713184 868.089068 143.139048 868.089068 143.139048 129.261992 818.521139 129.261992 818.521139 562.438763 841.033875 562.438763 841.033875 106.749256 120.626311 106.749256 120.626311 890.601804 490.713184 890.601804Z" p-id="34150"></path><path d="M692.654476 309.270762c0 5.65172-4.581342 10.233062-10.233062 10.233062l-403.182642 0c-5.65172 0-10.233062-4.581342-10.233062-10.233062l0-2.046612c0-5.65172 4.581342-10.233062 10.233062-10.233062l403.182642 0c5.65172 0 10.233062 4.581342 10.233062 10.233062L692.654476 309.270762z" p-id="34151"></path><path d="M692.654476 457.642998c0 5.65172-4.581342 10.233062-10.233062 10.233062l-403.182642 0c-5.65172 0-10.233062-4.581342-10.233062-10.233062l0-2.046612c0-5.65172 4.581342-10.233062 10.233062-10.233062l403.182642 0c5.65172 0 10.233062 4.581342 10.233062 10.233062L692.654476 457.642998z" p-id="34152"></path><path d="M692.654476 606.01421c0 5.65172-4.581342 10.233062-10.233062 10.233062l-403.182642 0c-5.65172 0-10.233062-4.581342-10.233062-10.233062l0-2.046612c0-5.65172 4.581342-10.233062 10.233062-10.233062l403.182642 0c5.65172 0 10.233062 4.581342 10.233062 10.233062L692.654476 606.01421z" p-id="34153"></path><path d="M939.213965 652.016941c3.996011 3.996011 3.996011 10.475586 0 14.471596l-285.093107 285.093107c-3.996011 3.996011-10.475586 3.996011-14.471596 0l-1.446955-1.446955c-3.996011-3.996011-3.996011-10.475586 0-14.471596l285.093107-285.093107c3.996011-3.996011 10.475586-3.996011 14.471596 0L939.213965 652.016941z" p-id="34154"></path><path d="M654.149511 951.581644c-3.996011 3.996011-10.475586 3.996011-14.471596 0L509.432525 821.336254c-3.996011-3.996011-3.996011-10.475586 0-14.471596l1.446955-1.446955c3.996011-3.996011 10.475586-3.996011 14.471596 0L655.596466 935.663092c3.996011 3.996011 3.996011 10.475586 0 14.471596L654.149511 951.581644z" p-id="34155"></path></svg>